<?xml version="1.0" encoding="UTF-8" standalone="no"?>
<!DOCTYPE svg PUBLIC "-//W3C//DTD SVG 1.1//EN"
 "http://www.w3.org/Graphics/SVG/1.1/DTD/svg11.dtd">
<!-- Generated by graphviz version 2.43.0 (0)
 -->
<!-- Title: %3 Pages: 1 -->
<svg width="1239pt" height="332pt"
 viewBox="0.00 0.00 1239.25 332.00" xmlns="http://www.w3.org/2000/svg" xmlns:xlink="http://www.w3.org/1999/xlink">
<g id="graph0" class="graph" transform="scale(1 1) rotate(0) translate(4 328)">
<title>%3</title>
<polygon fill="white" stroke="transparent" points="-4,4 -4,-328 1235.25,-328 1235.25,4 -4,4"/>
<!-- [root] aws_instance.example (expand) -->
<g id="node1" class="node">
<title>[root] aws_instance.example (expand)</title>
<polygon fill="none" stroke="black" points="730.27,-180 591.27,-180 591.27,-144 730.27,-144 730.27,-180"/>
<text text-anchor="middle" x="660.77" y="-158.3" font-family="Times,serif" font-size="14.00">aws_instance.example</text>
</g>
<!-- [root] aws_key_pair.mykey (expand) -->
<g id="node2" class="node">
<title>[root] aws_key_pair.mykey (expand)</title>
<polygon fill="none" stroke="black" points="499.77,-108 367.77,-108 367.77,-72 499.77,-72 499.77,-108"/>
<text text-anchor="middle" x="433.77" y="-86.3" font-family="Times,serif" font-size="14.00">aws_key_pair.mykey</text>
</g>
<!-- [root] aws_instance.example (expand)&#45;&gt;[root] aws_key_pair.mykey (expand) -->
<g id="edge1" class="edge">
<title>[root] aws_instance.example (expand)&#45;&gt;[root] aws_key_pair.mykey (expand)</title>
<path fill="none" stroke="black" d="M605.53,-143.97C573.4,-134.06 532.72,-121.51 499.02,-111.12"/>
<polygon fill="black" stroke="black" points="499.84,-107.71 489.26,-108.11 497.78,-114.4 499.84,-107.71"/>
</g>
<!-- [root] var.AMIS -->
<g id="node4" class="node">
<title>[root] var.AMIS</title>
<polygon fill="none" stroke="black" points="583.27,-108 518.27,-108 518.27,-72 589.27,-72 589.27,-102 583.27,-108"/>
<polyline fill="none" stroke="black" points="583.27,-108 583.27,-102 "/>
<polyline fill="none" stroke="black" points="589.27,-102 583.27,-102 "/>
<text text-anchor="middle" x="553.77" y="-86.3" font-family="Times,serif" font-size="14.00">var.AMIS</text>
</g>
<!-- [root] aws_instance.example (expand)&#45;&gt;[root] var.AMIS -->
<g id="edge2" class="edge">
<title>[root] aws_instance.example (expand)&#45;&gt;[root] var.AMIS</title>
<path fill="none" stroke="black" d="M634.59,-143.88C620.73,-134.81 603.53,-123.55 588.56,-113.76"/>
<polygon fill="black" stroke="black" points="590.33,-110.74 580.04,-108.19 586.5,-116.59 590.33,-110.74"/>
</g>
<!-- [root] var.AWS_REGION -->
<g id="node5" class="node">
<title>[root] var.AWS_REGION</title>
<polygon fill="none" stroke="black" points="726.27,-108 607.27,-108 607.27,-72 732.27,-72 732.27,-102 726.27,-108"/>
<polyline fill="none" stroke="black" points="726.27,-108 726.27,-102 "/>
<polyline fill="none" stroke="black" points="732.27,-102 726.27,-102 "/>
<text text-anchor="middle" x="669.77" y="-86.3" font-family="Times,serif" font-size="14.00">var.AWS_REGION</text>
</g>
<!-- [root] aws_instance.example (expand)&#45;&gt;[root] var.AWS_REGION -->
<g id="edge3" class="edge">
<title>[root] aws_instance.example (expand)&#45;&gt;[root] var.AWS_REGION</title>
<path fill="none" stroke="black" d="M662.99,-143.7C663.98,-135.98 665.18,-126.71 666.28,-118.11"/>
<polygon fill="black" stroke="black" points="669.77,-118.47 667.57,-108.1 662.82,-117.58 669.77,-118.47"/>
</g>
<!-- [root] var.PATH_TO_PRIVATE_KEY -->
<g id="node7" class="node">
<title>[root] var.PATH_TO_PRIVATE_KEY</title>
<polygon fill="none" stroke="black" points="935.27,-108 750.27,-108 750.27,-72 941.27,-72 941.27,-102 935.27,-108"/>
<polyline fill="none" stroke="black" points="935.27,-108 935.27,-102 "/>
<polyline fill="none" stroke="black" points="941.27,-102 935.27,-102 "/>
<text text-anchor="middle" x="845.77" y="-86.3" font-family="Times,serif" font-size="14.00">var.PATH_TO_PRIVATE_KEY</text>
</g>
<!-- [root] aws_instance.example (expand)&#45;&gt;[root] var.PATH_TO_PRIVATE_KEY -->
<g id="edge4" class="edge">
<title>[root] aws_instance.example (expand)&#45;&gt;[root] var.PATH_TO_PRIVATE_KEY</title>
<path fill="none" stroke="black" d="M706.02,-143.88C731.76,-134.14 764.18,-121.87 791.3,-111.61"/>
<polygon fill="black" stroke="black" points="792.54,-114.88 800.66,-108.07 790.07,-108.33 792.54,-114.88"/>
</g>
<!-- [root] provider[&quot;registry.terraform.io/hashicorp/aws&quot;] -->
<g id="node3" class="node">
<title>[root] provider[&quot;registry.terraform.io/hashicorp/aws&quot;]</title>
<polygon fill="none" stroke="black" points="252.77,-36 0.23,-18 252.77,0 505.3,-18 252.77,-36"/>
<text text-anchor="middle" x="252.77" y="-14.3" font-family="Times,serif" font-size="14.00">provider[&quot;registry.terraform.io/hashicorp/aws&quot;]</text>
</g>
<!-- [root] aws_key_pair.mykey (expand)&#45;&gt;[root] provider[&quot;registry.terraform.io/hashicorp/aws&quot;] -->
<g id="edge5" class="edge">
<title>[root] aws_key_pair.mykey (expand)&#45;&gt;[root] provider[&quot;registry.terraform.io/hashicorp/aws&quot;]</title>
<path fill="none" stroke="black" d="M389.49,-71.88C362.25,-61.34 327.37,-47.85 299.65,-37.13"/>
<polygon fill="black" stroke="black" points="300.76,-33.81 290.17,-33.47 298.24,-40.34 300.76,-33.81"/>
</g>
<!-- [root] var.PATH_TO_PUBLIC_KEY -->
<g id="node8" class="node">
<title>[root] var.PATH_TO_PUBLIC_KEY</title>
<polygon fill="none" stroke="black" points="702.27,-36 523.27,-36 523.27,0 708.27,0 708.27,-30 702.27,-36"/>
<polyline fill="none" stroke="black" points="702.27,-36 702.27,-30 "/>
<polyline fill="none" stroke="black" points="708.27,-30 702.27,-30 "/>
<text text-anchor="middle" x="615.77" y="-14.3" font-family="Times,serif" font-size="14.00">var.PATH_TO_PUBLIC_KEY</text>
</g>
<!-- [root] aws_key_pair.mykey (expand)&#45;&gt;[root] var.PATH_TO_PUBLIC_KEY -->
<g id="edge6" class="edge">
<title>[root] aws_key_pair.mykey (expand)&#45;&gt;[root] var.PATH_TO_PUBLIC_KEY</title>
<path fill="none" stroke="black" d="M478.29,-71.88C503.5,-62.18 535.22,-49.98 561.84,-39.74"/>
<polygon fill="black" stroke="black" points="563.31,-42.92 571.39,-36.07 560.8,-36.39 563.31,-42.92"/>
</g>
<!-- [root] var.INSTANCE_USERNAME -->
<g id="node6" class="node">
<title>[root] var.INSTANCE_USERNAME</title>
<polygon fill="none" stroke="black" points="400.27,-252 221.27,-252 221.27,-216 406.27,-216 406.27,-246 400.27,-252"/>
<polyline fill="none" stroke="black" points="400.27,-252 400.27,-246 "/>
<polyline fill="none" stroke="black" points="406.27,-246 400.27,-246 "/>
<text text-anchor="middle" x="313.77" y="-230.3" font-family="Times,serif" font-size="14.00">var.INSTANCE_USERNAME</text>
</g>
<!-- [root] output.aws_public_dns (expand) -->
<g id="node9" class="node">
<title>[root] output.aws_public_dns (expand)</title>
<ellipse fill="none" stroke="black" cx="609.77" cy="-234" rx="148.37" ry="18"/>
<text text-anchor="middle" x="609.77" y="-230.3" font-family="Times,serif" font-size="14.00">[root] output.aws_public_dns (expand)</text>
</g>
<!-- [root] output.aws_public_dns (expand)&#45;&gt;[root] aws_instance.example (expand) -->
<g id="edge7" class="edge">
<title>[root] output.aws_public_dns (expand)&#45;&gt;[root] aws_instance.example (expand)</title>
<path fill="none" stroke="black" d="M622.11,-216.05C628.16,-207.75 635.57,-197.58 642.28,-188.38"/>
<polygon fill="black" stroke="black" points="645.12,-190.42 648.18,-180.28 639.46,-186.3 645.12,-190.42"/>
</g>
<!-- [root] output.public_key (expand) -->
<g id="node10" class="node">
<title>[root] output.public_key (expand)</title>
<ellipse fill="none" stroke="black" cx="433.77" cy="-162" rx="130.78" ry="18"/>
<text text-anchor="middle" x="433.77" y="-158.3" font-family="Times,serif" font-size="14.00">[root] output.public_key (expand)</text>
</g>
<!-- [root] output.public_key (expand)&#45;&gt;[root] aws_key_pair.mykey (expand) -->
<g id="edge8" class="edge">
<title>[root] output.public_key (expand)&#45;&gt;[root] aws_key_pair.mykey (expand)</title>
<path fill="none" stroke="black" d="M433.77,-143.7C433.77,-135.98 433.77,-126.71 433.77,-118.11"/>
<polygon fill="black" stroke="black" points="437.27,-118.1 433.77,-108.1 430.27,-118.1 437.27,-118.1"/>
</g>
<!-- [root] provider[&quot;registry.terraform.io/hashicorp/aws&quot;] (close) -->
<g id="node11" class="node">
<title>[root] provider[&quot;registry.terraform.io/hashicorp/aws&quot;] (close)</title>
<ellipse fill="none" stroke="black" cx="1003.77" cy="-234" rx="227.46" ry="18"/>
<text text-anchor="middle" x="1003.77" y="-230.3" font-family="Times,serif" font-size="14.00">[root] provider[&quot;registry.terraform.io/hashicorp/aws&quot;] (close)</text>
</g>
<!-- [root] provider[&quot;registry.terraform.io/hashicorp/aws&quot;] (close)&#45;&gt;[root] aws_instance.example (expand) -->
<g id="edge9" class="edge">
<title>[root] provider[&quot;registry.terraform.io/hashicorp/aws&quot;] (close)&#45;&gt;[root] aws_instance.example (expand)</title>
<path fill="none" stroke="black" d="M925.51,-217.03C870.11,-205.72 796.07,-190.61 740.37,-179.25"/>
<polygon fill="black" stroke="black" points="741.04,-175.81 730.55,-177.24 739.64,-182.67 741.04,-175.81"/>
</g>
<!-- [root] root -->
<g id="node12" class="node">
<title>[root] root</title>
<ellipse fill="none" stroke="black" cx="521.77" cy="-306" rx="47.39" ry="18"/>
<text text-anchor="middle" x="521.77" y="-302.3" font-family="Times,serif" font-size="14.00">[root] root</text>
</g>
<!-- [root] root&#45;&gt;[root] var.INSTANCE_USERNAME -->
<g id="edge13" class="edge">
<title>[root] root&#45;&gt;[root] var.INSTANCE_USERNAME</title>
<path fill="none" stroke="black" d="M487.42,-293.44C456.7,-283.1 410.98,-267.72 374.17,-255.33"/>
<polygon fill="black" stroke="black" points="375.12,-251.95 364.53,-252.08 372.89,-258.59 375.12,-251.95"/>
</g>
<!-- [root] root&#45;&gt;[root] output.aws_public_dns (expand) -->
<g id="edge10" class="edge">
<title>[root] root&#45;&gt;[root] output.aws_public_dns (expand)</title>
<path fill="none" stroke="black" d="M541.3,-289.46C552.76,-280.35 567.48,-268.64 580.32,-258.42"/>
<polygon fill="black" stroke="black" points="582.8,-260.93 588.44,-251.96 578.44,-255.45 582.8,-260.93"/>
</g>
<!-- [root] root&#45;&gt;[root] output.public_key (expand) -->
<g id="edge11" class="edge">
<title>[root] root&#45;&gt;[root] output.public_key (expand)</title>
<path fill="none" stroke="black" d="M495.35,-290.98C480.61,-281.81 463.17,-268.48 452.77,-252 441.07,-233.46 436.47,-208.87 434.71,-190.23"/>
<polygon fill="black" stroke="black" points="438.18,-189.76 433.97,-180.04 431.2,-190.27 438.18,-189.76"/>
</g>
<!-- [root] root&#45;&gt;[root] provider[&quot;registry.terraform.io/hashicorp/aws&quot;] (close) -->
<g id="edge12" class="edge">
<title>[root] root&#45;&gt;[root] provider[&quot;registry.terraform.io/hashicorp/aws&quot;] (close)</title>
<path fill="none" stroke="black" d="M565.39,-298.66C638.13,-288.1 786.43,-266.56 890.32,-251.48"/>
<polygon fill="black" stroke="black" points="890.84,-254.94 900.23,-250.04 889.83,-248.01 890.84,-254.94"/>
</g>
</g>
</svg>
